<svg width="32" height="32" viewBox="0 0 32 32" fill="none" xmlns="http://www.w3.org/2000/svg">
  <!-- GitHub Octocat shape - simplified for small size -->
  <path d="M14 4C8.477 4 4 8.477 4 14c0 4.419 2.865 8.166 6.839 9.489.5.092.661-.217.661-.481v-1.861c-2.781.605-3.361-1.18-3.361-1.18-.455-1.156-1.11-1.463-1.11-1.463-.908-.621.069-.608.069-.608 1.004.07 1.533 1.031 1.533 1.031.892 1.529 2.339 1.087 2.91.831.089-.646.349-1.087.635-1.337-2.221-.254-4.556-1.112-4.556-4.943 0-1.093.391-1.984 1.03-2.684-.103-.253-.446-1.27.097-2.647 0 0 .84-.269 2.751 1.025A9.564 9.564 0 0 1 14 8.337c.85.004 1.706.115 2.505.337 1.91-1.294 2.749-1.025 2.749-1.025.545 1.378.202 2.395.099 2.647.642.7 1.029 1.592 1.029 2.684 0 3.841-2.339 4.686-4.566 4.935.359.31.686.919.686 1.852v2.744c0 .267.159.579.667.48A10.001 10.001 0 0 0 24 14c0-5.523-4.477-10-10-10z" fill="#00979D"/>
  
  <!-- Magnifying glass - optimized for favicon -->
  <g transform="translate(12, 12)">
    <!-- Glass circle -->
    <circle cx="5" cy="5" r="4" stroke="#FF6F00" stroke-width="2" fill="none"/>
    <!-- Handle -->
    <path d="M8 8L12 12" stroke="#FF6F00" stroke-width="2" stroke-linecap="round"/>
  </g>
</svg>