<svg width="48" height="48" viewBox="0 0 48 48" fill="none" xmlns="http://www.w3.org/2000/svg">
  <path class="logo-github" d="M20 6C11.716 6 5 12.716 5 21c0 6.627 4.298 12.25 10.258 14.233.75.138.992-.326.992-.721v-2.792c-4.172.907-5.041-1.77-5.041-1.77-.683-1.733-1.666-2.195-1.666-2.195-1.361-.931.104-.911.104-.911 1.506.105 2.299 1.546 2.299 1.546 1.338 2.293 3.509 1.63 4.365 1.246.134-.969.523-1.631.953-2.005-3.331-.381-6.834-1.668-6.834-7.414 0-1.639.586-2.976 1.545-4.026-.155-.379-.669-1.905.146-3.97 0 0 1.26-.403 4.126 1.538 1.196-.333 2.479-.499 3.754-.505 1.275.006 2.559.172 3.758.505 2.864-1.941 4.122-1.538 4.122-1.538.817 2.066.303 3.592.148 3.97.963 1.05 1.544 2.388 1.544 4.026 0 5.76-3.509 7.029-6.85 7.402.538.465 1.029 1.378 1.029 2.778v4.116c0 .399.239.867 1.001.72C30.705 33.248 35 27.625 35 21c0-8.284-6.716-15-15-15z" fill="currentColor" opacity="0.9"/>
  
  <g transform="translate(18, 18)" class="logo-magnifier">
    <circle cx="8" cy="8" r="6" stroke="currentColor" stroke-width="2.5" fill="none"/>
    <circle cx="8" cy="8" r="4.8" stroke="currentColor" stroke-width="0.4" fill="white" fill-opacity="0.1"/>
    <path d="M12.5 12.5L19 19" stroke="currentColor" stroke-width="2.5" stroke-linecap="round"/>
    <path d="M6.5 5 Q8 3.5 9.5 5" stroke="white" stroke-width="1.2" stroke-linecap="round" opacity="0.6"/>
  </g>
</svg>